<mxfile host="app.diagrams.net" modified="2022-07-05T02:20:35.258Z" agent="5.0 (Windows NT 10.0; Win64; x64) AppleWebKit/537.36 (KHTML, like Gecko) Chrome/103.0.0.0 Safari/537.36" etag="vZUFHqmOSTg1nwB0Be9L" version="18.0.4" type="github">
  <diagram id="L5dyPDdDkWt6HkY1_jV8" name="Page-1">
    <mxGraphModel dx="942" dy="492" grid="1" gridSize="10" guides="1" tooltips="1" connect="1" arrows="1" fold="1" page="1" pageScale="1" pageWidth="827" pageHeight="1169" math="0" shadow="0">
      <root>
        <mxCell id="0" />
        <mxCell id="1" parent="0" />
        <mxCell id="S7i1rTCKDz2u9l8eflAd-1" value="cpu" style="rounded=0;whiteSpace=wrap;html=1;" vertex="1" parent="1">
          <mxGeometry x="90" y="40" width="100" height="330" as="geometry" />
        </mxCell>
        <mxCell id="S7i1rTCKDz2u9l8eflAd-3" value="内存&lt;br&gt;" style="rounded=1;whiteSpace=wrap;html=1;" vertex="1" parent="1">
          <mxGeometry x="440" y="20" width="120" height="370" as="geometry" />
        </mxCell>
        <mxCell id="S7i1rTCKDz2u9l8eflAd-4" value="" style="endArrow=classic;html=1;rounded=0;exitX=1.015;exitY=0.218;exitDx=0;exitDy=0;entryX=0;entryY=0.25;entryDx=0;entryDy=0;exitPerimeter=0;" edge="1" parent="1" source="S7i1rTCKDz2u9l8eflAd-1" target="S7i1rTCKDz2u9l8eflAd-3">
          <mxGeometry width="50" height="50" relative="1" as="geometry">
            <mxPoint x="390" y="270" as="sourcePoint" />
            <mxPoint x="440" y="220" as="targetPoint" />
          </mxGeometry>
        </mxCell>
        <mxCell id="S7i1rTCKDz2u9l8eflAd-5" value="" style="endArrow=classic;html=1;rounded=0;exitX=1.015;exitY=0.218;exitDx=0;exitDy=0;entryX=0;entryY=0.25;entryDx=0;entryDy=0;exitPerimeter=0;" edge="1" parent="1">
          <mxGeometry width="50" height="50" relative="1" as="geometry">
            <mxPoint x="190" y="204.50000000000006" as="sourcePoint" />
            <mxPoint x="438.5" y="205.06" as="targetPoint" />
          </mxGeometry>
        </mxCell>
        <mxCell id="S7i1rTCKDz2u9l8eflAd-6" value="" style="endArrow=classic;html=1;rounded=0;exitX=1.015;exitY=0.218;exitDx=0;exitDy=0;entryX=0;entryY=0.25;entryDx=0;entryDy=0;exitPerimeter=0;" edge="1" parent="1">
          <mxGeometry width="50" height="50" relative="1" as="geometry">
            <mxPoint x="190" y="310" as="sourcePoint" />
            <mxPoint x="438.5" y="310.55999999999995" as="targetPoint" />
          </mxGeometry>
        </mxCell>
        <mxCell id="S7i1rTCKDz2u9l8eflAd-7" value="地址总线" style="text;html=1;strokeColor=none;fillColor=none;align=center;verticalAlign=middle;whiteSpace=wrap;rounded=0;" vertex="1" parent="1">
          <mxGeometry x="280" y="80" width="60" height="30" as="geometry" />
        </mxCell>
        <mxCell id="S7i1rTCKDz2u9l8eflAd-9" value="数据总线" style="text;html=1;strokeColor=none;fillColor=none;align=center;verticalAlign=middle;whiteSpace=wrap;rounded=0;" vertex="1" parent="1">
          <mxGeometry x="280" y="170" width="60" height="30" as="geometry" />
        </mxCell>
        <mxCell id="S7i1rTCKDz2u9l8eflAd-10" value="控制总线" style="text;html=1;strokeColor=none;fillColor=none;align=center;verticalAlign=middle;whiteSpace=wrap;rounded=0;" vertex="1" parent="1">
          <mxGeometry x="280" y="270" width="60" height="30" as="geometry" />
        </mxCell>
      </root>
    </mxGraphModel>
  </diagram>
</mxfile>
